<svg xmlns="http://www.w3.org/2000/svg" width="14.003" height="30.001" viewBox="33.698 1753.533 14.003 30.001"><path d="M38.312 1755.079c1.17-1.113 2.834-1.49 4.404-1.537 1.66-.015 3.319-.006 4.979-.005.007 1.751.008 3.503 0 5.255-1.073-.002-2.147.002-3.22-.002-.68-.043-1.378.473-1.502 1.147-.016 1.172-.006 2.345-.005 3.517 1.573.006 3.147-.002 4.72.004-.115 1.695-.325 3.382-.572 5.063-1.39.013-2.781-.001-4.17.007-.013 5 .006 10-.01 15-2.065.008-4.13-.004-6.195.006-.039-5.001.004-10.004-.021-15.005-1.007-.01-2.015.007-3.022-.008.004-1.681.001-3.362.002-5.043 1.006-.012 2.013.003 3.02-.007.03-1.634-.031-3.27.032-4.903.101-1.293.593-2.595 1.56-3.489Z" fill="#3d58a6" fill-rule="evenodd" data-name="Path 10"/></svg>